P3
35 14
255
32 192 208 32 192 208 32 192 208 32 192 208 32 192 208 32 192 208 32 192 208 32 192 208 32 192 208 32 192 208 32 192 208 32 192 208 32 192 208 32 192 208 32 192 208 32 192 208 32 192 208 32 192 208 32 192 208 32 192 208 32 192 208 32 192 208 32 192 208 32 192 208 32 192 208 32 192 208 240 144 192 240 144 192 240 144 192 240 144 192 32 192 208 32 192 208 32 192 208 32 192 208 32 192 208 
32 192 208 32 192 208 32 192 208 32 192 208 32 192 208 32 192 208 32 192 208 32 192 208 32 192 208 32 192 208 32 192 208 32 192 208 32 192 208 32 192 208 32 192 208 32 192 208 32 192 208 32 192 208 32 192 208 32 192 208 32 192 208 32 192 208 32 192 208 240 144 192 240 144 192 240 144 192 0 0 0 0 0 0 0 0 0 0 0 0 240 144 192 240 144 192 32 192 208 32 192 208 32 192 208 
32 192 208 32 192 208 32 192 208 32 192 208 32 192 208 32 192 208 32 192 208 32 192 208 32 192 208 32 192 208 32 192 208 32 192 208 32 192 208 32 192 208 32 192 208 32 192 208 32 192 208 32 192 208 32 192 208 32 192 208 32 192 208 240 144 192 240 144 192 0 0 0 0 0 0 0 0 0 0 0 0 0 0 0 0 0 0 0 0 0 0 0 0 0 0 0 240 144 192 32 192 208 32 192 208 
32 192 208 32 192 208 32 192 208 32 192 208 32 192 208 32 192 208 32 192 208 32 192 208 32 192 208 32 192 208 32 192 208 32 192 208 32 192 208 32 192 208 32 192 208 32 192 208 32 192 208 32 192 208 32 192 208 32 192 208 240 144 192 0 0 0 0 0 0 0 0 0 0 0 0 0 0 0 240 144 192 240 144 192 240 144 192 240 144 192 0 0 0 0 0 0 0 0 0 240 144 192 32 192 208 
32 192 208 32 192 208 32 192 208 32 192 208 32 192 208 32 192 208 32 192 208 32 192 208 32 192 208 32 192 208 32 192 208 32 192 208 32 192 208 32 192 208 32 192 208 32 192 208 32 192 208 32 192 208 240 144 192 240 144 192 0 0 0 0 0 0 0 0 0 0 0 0 240 144 192 240 144 192 32 192 208 32 192 208 32 192 208 32 192 208 240 144 192 0 0 0 0 0 0 0 0 0 240 144 192 
32 192 208 32 192 208 32 192 208 240 144 192 240 144 192 240 144 192 240 144 192 240 144 192 32 192 208 32 192 208 32 192 208 32 192 208 32 192 208 32 192 208 32 192 208 32 192 208 32 192 208 240 144 192 0 0 0 0 0 0 0 0 0 0 0 0 240 144 192 240 144 192 32 192 208 32 192 208 32 192 208 32 192 208 32 192 208 32 192 208 32 192 208 240 144 192 0 0 0 0 0 0 240 144 192 
32 192 208 32 192 208 240 144 192 0 0 0 0 0 0 0 0 0 0 0 0 0 0 0 240 144 192 240 144 192 32 192 208 32 192 208 32 192 208 32 192 208 32 192 208 32 192 208 240 144 192 0 0 0 0 0 0 0 0 0 240 144 192 240 144 192 32 192 208 32 192 208 32 192 208 32 192 208 32 192 208 32 192 208 32 192 208 32 192 208 32 192 208 32 192 208 240 144 192 240 144 192 32 192 208 
32 192 208 32 192 208 240 144 192 0 0 0 0 0 0 0 0 0 0 0 0 0 0 0 0 0 0 0 0 0 240 144 192 32 192 208 32 192 208 32 192 208 32 192 208 240 144 192 0 0 0 0 0 0 0 0 0 240 144 192 32 192 208 32 192 208 32 192 208 32 192 208 32 192 208 32 192 208 32 192 208 32 192 208 32 192 208 32 192 208 32 192 208 32 192 208 32 192 208 32 192 208 32 192 208 
32 192 208 240 144 192 0 0 0 0 0 0 240 144 192 240 144 192 240 144 192 240 144 192 0 0 0 0 0 0 0 0 0 240 144 192 32 192 208 32 192 208 240 144 192 0 0 0 0 0 0 0 0 0 240 144 192 32 192 208 32 192 208 32 192 208 32 192 208 32 192 208 32 192 208 32 192 208 32 192 208 32 192 208 32 192 208 32 192 208 32 192 208 32 192 208 32 192 208 32 192 208 32 192 208 
32 192 208 240 144 192 0 0 0 240 144 192 32 192 208 32 192 208 32 192 208 32 192 208 240 144 192 240 144 192 0 0 0 0 0 0 240 144 192 240 144 192 0 0 0 0 0 0 0 0 0 240 144 192 32 192 208 32 192 208 32 192 208 32 192 208 32 192 208 32 192 208 32 192 208 32 192 208 32 192 208 32 192 208 32 192 208 32 192 208 32 192 208 32 192 208 32 192 208 32 192 208 32 192 208 
240 144 192 0 0 0 0 0 0 240 144 192 32 192 208 32 192 208 32 192 208 32 192 208 32 192 208 32 192 208 240 144 192 0 0 0 0 0 0 240 176 160 240 176 160 0 0 0 240 144 192 32 192 208 32 192 208 32 192 208 32 192 208 32 192 208 32 192 208 32 192 208 32 192 208 32 192 208 32 192 208 32 192 208 32 192 208 32 192 208 32 192 208 32 192 208 32 192 208 32 192 208 32 192 208 
240 144 192 0 0 0 240 144 192 32 192 208 32 192 208 32 192 208 32 192 208 32 192 208 32 192 208 32 192 208 32 192 208 240 144 192 0 0 0 240 176 160 176 112 0 240 144 192 32 192 208 32 192 208 32 192 208 32 192 208 32 192 208 32 192 208 32 192 208 32 192 208 32 192 208 32 192 208 32 192 208 32 192 208 32 192 208 32 192 208 32 192 208 32 192 208 32 192 208 32 192 208 32 192 208 
240 144 192 0 0 0 240 144 192 32 192 208 32 192 208 32 192 208 32 192 208 32 192 208 32 192 208 32 192 208 32 192 208 32 192 208 240 144 192 176 112 0 176 112 0 240 144 192 32 192 208 32 192 208 32 192 208 32 192 208 32 192 208 32 192 208 32 192 208 32 192 208 32 192 208 32 192 208 32 192 208 32 192 208 32 192 208 32 192 208 32 192 208 32 192 208 32 192 208 32 192 208 32 192 208 
32 192 208 240 144 192 32 192 208 32 192 208 32 192 208 32 192 208 32 192 208 32 192 208 32 192 208 32 192 208 32 192 208 32 192 208 32 192 208 240 144 192 240 144 192 32 192 208 32 192 208 32 192 208 32 192 208 32 192 208 32 192 208 32 192 208 32 192 208 32 192 208 32 192 208 32 192 208 32 192 208 32 192 208 32 192 208 32 192 208 32 192 208 32 192 208 32 192 208 32 192 208 32 192 208 
