P3
14 19
255 
212 236 252 212 236 252 212 236 252 212 236 252 212 236 252 212 236 252 132 4 4 132 4 4 132 4 4 132 4 4 132 4 4 212 236 252 212 236 252 212 236 252 
212 236 252 212 236 252 212 236 252 212 236 252 132 4 4 132 4 4 196 4 4 132 4 4 196 4 4 196 4 4 196 4 4 132 4 4 212 236 252 212 236 252 
212 236 252 212 236 252 212 236 252 212 236 252 132 4 4 196 4 4 196 4 4 196 4 4 132 4 4 196 4 4 196 4 4 132 4 4 212 236 252 212 236 252 
212 236 252 212 236 252 212 236 252 132 4 4 196 4 4 220 4 4 196 4 4 196 4 4 132 4 4 220 4 4 196 4 4 196 4 4 132 4 4 212 236 252 
212 236 252 212 236 252 212 236 252 132 4 4 196 4 4 220 4 4 196 4 4 132 4 4 220 4 4 220 4 4 196 4 4 196 4 4 132 4 4 132 4 4 
212 236 252 212 236 252 212 236 252 132 4 4 196 4 4 132 4 4 196 4 4 132 4 4 196 4 4 196 4 4 196 4 4 132 4 4 196 4 4 132 4 4 
212 236 252 212 236 252 132 4 4 196 4 4 220 4 4 196 4 4 132 4 4 132 4 4 132 4 4 132 4 4 132 4 4 220 4 4 196 4 4 132 4 4 
212 236 252 132 4 4 196 4 4 196 4 4 196 4 4 132 4 4 132 4 4 220 4 4 196 4 4 196 4 4 132 4 4 220 4 4 196 4 4 132 4 4 
212 236 252 212 236 252 132 4 4 196 4 4 132 4 4 220 4 4 220 4 4 220 4 4 220 4 4 196 4 4 196 4 4 132 4 4 196 4 4 132 4 4 
212 236 252 212 236 252 132 4 4 132 4 4 132 4 4 132 4 4 220 4 4 220 4 4 220 4 4 220 4 4 196 4 4 196 4 4 132 4 4 132 4 4 
212 236 252 132 4 4 132 4 4 196 4 4 196 4 4 132 4 4 220 4 4 220 4 4 220 4 4 196 4 4 196 4 4 132 4 4 132 4 4 212 236 252 
212 236 252 132 4 4 220 4 4 220 4 4 196 4 4 196 4 4 132 4 4 196 4 4 196 4 4 132 4 4 132 4 4 196 4 4 132 4 4 132 4 4 
132 4 4 196 4 4 220 4 4 196 4 4 132 4 4 132 4 4 132 4 4 132 4 4 132 4 4 220 4 4 220 4 4 132 4 4 196 4 4 132 4 4 
132 4 4 196 4 4 196 4 4 196 4 4 132 4 4 196 4 4 196 4 4 132 4 4 220 4 4 196 4 4 196 4 4 132 4 4 196 4 4 132 4 4 
212 236 252 132 4 4 132 4 4 132 4 4 196 4 4 196 4 4 196 4 4 132 4 4 220 4 4 196 4 4 132 4 4 196 4 4 196 4 4 132 4 4 
212 236 252 212 236 252 132 4 4 132 4 4 196 4 4 196 4 4 132 4 4 220 4 4 196 4 4 132 4 4 196 4 4 196 4 4 132 4 4 212 236 252 
212 236 252 212 236 252 212 236 252 212 236 252 132 4 4 132 4 4 132 4 4 196 4 4 196 4 4 132 4 4 196 4 4 132 4 4 212 236 252 212 236 252 
212 236 252 212 236 252 212 236 252 212 236 252 212 236 252 212 236 252 132 4 4 132 4 4 132 4 4 196 4 4 132 4 4 212 236 252 212 236 252 212 236 252 
212 236 252 212 236 252 212 236 252 212 236 252 212 236 252 212 236 252 212 236 252 212 236 252 132 4 4 132 4 4 212 236 252 212 236 252 212 236 252 212 236 252 
